<svg width="22" height="22" viewBox="0 0 22 22" fill="none" xmlns="http://www.w3.org/2000/svg">
<path fill-rule="evenodd" clip-rule="evenodd" d="M0.25 11C0.25 5.06294 5.06294 0.25 11 0.25C16.9371 0.25 21.75 5.06294 21.75 11C21.75 16.9371 16.9371 21.75 11 21.75C5.06294 21.75 0.25 16.9371 0.25 11ZM12.793 13.3135C13.0453 13.2429 13.2424 13.0458 13.313 12.7935L14.5505 8.37411C14.6235 8.1132 14.5502 7.83316 14.3586 7.64156C14.167 7.44997 13.887 7.37661 13.626 7.44967L9.20662 8.68711C8.95437 8.75774 8.75725 8.95486 8.68662 9.20711L7.44918 13.6265C7.37612 13.8874 7.44948 14.1675 7.64107 14.3591C7.83267 14.5507 8.11271 14.624 8.37363 14.551L12.793 13.3135Z" fill="#D52D2D"/>
</svg>
